<svg xmlns="http://www.w3.org/2000/svg" viewBox="0 0 750 750" stroke="currentcolor" fill="currentColor" height="1em" width="1em">
		<path d="M375.8,49.1C196,48.8,49.8,193.9,49.1,374.2c-0.6,178.7,142,320.9,314.2,326.5c187.2,6.1,332-141.8,337.4-314.7
			C706.6,198.5,555.7,49.4,375.8,49.1z M374.6,684c-171-0.1-309-138.6-308.9-310.2C65.9,203.9,205,65.7,375.8,65.8
			c169.9,0.1,308,139,308.2,309.3C684.2,545.2,545.1,684.8,374.6,684z M602.8,372c1.6,124.7-93.7,222.6-210.7,230.9
			C263.4,612,162.3,518,148.9,403.4c-15.5-131.7,76.2-228.7,172.9-250.2c-9.8,6.6-18.8,12.3-27.1,18.9
			c-39.2,31.3-63,71.6-71.2,121.1c-4.8,28.9-2.2,56.9,11.3,83.2c9,17.4,21.8,30.9,41.6,35.8c20,5,36-2.6,48.1-17.9
			c17.6-22.2,28.2-47.4,26.3-76.4c-1.5-22-10.5-41.1-23.7-58.4c-9.9-13-21.1-24.8-34-34.8c-2.6-2-2.4-3.1-0.4-5.2
			c6.7-7.2,13.4-14.4,19.9-21.8c2.5-2.9,4.3-2.5,7-0.4c8.8,7.1,15.3,16.1,21.6,25.5c1.3-14-3.6-26.3-10.2-38.1
			c-1.7-3.1-2.1-4.9,0.5-7.7c13.7-14.7,27.2-29.5,40.5-44.5c2.6-3,3.9-2.5,6.3,0.2c13.3,14.8,26.6,29.5,40.2,44.1
			c2.5,2.6,2.9,4.3,0.9,7.6c-6.4,10.6-10.3,22.2-11.3,34.7c-0.1,1.4-0.7,2.9,0.8,4.7c3.5-5,6.7-10,10.2-14.7c3.6-4.9,8-9,12.9-12.7
			c2-1.5,3.1-1.3,4.7,0.4c7.1,7.9,14.2,15.7,21.5,23.4c3,3.2-0.3,3.7-1.7,4.9c-15.8,12.6-29.3,27.4-40.3,44.3
			c-11.3,17.5-18.7,36.7-17.2,57.7c2.1,29.8,13.1,56.2,36,76.3c16.4,14.5,41.2,13.5,59.9-1.5c17.8-14.4,27-33.9,31-55.7
			c9.3-50.6-5.1-95.6-34.2-136.7c-15.3-21.6-35.2-38.4-57.5-52.5c-1.6-1-3.1-2-5.4-3.4C511.6,170.7,601.3,251.8,602.8,372z
			 M213.1,151l-11.5-10.6l15.2,3.9l3.2-15.6l3.2,15l15.4-3.9L227.6,151l10.9,10l-15-4.8l-3,15.9l-4.3-15.2l-14.1,4.7L213.1,151z
			 M308.9,109.4l-11.5-10.6l15.2,3.9l3.2-15.6l3.2,15l15.4-3.9l-11.1,11.1l10.9,10l-15-4.8l-3,15.9l-4.3-15.2l-14.1,4.7L308.9,109.4
			z M422.5,108.6l-11.5-10.6l15.2,3.9l3.2-15.6l3.2,15l15.4-3.9L437,108.6l10.9,10l-15-4.8l-3,15.9l-4.3-15.2l-14.1,4.7L422.5,108.6
			z M519.8,151l-11.5-10.6l15.2,3.9l3.2-15.6l3.2,15l15.4-3.9L534.3,151l10.9,10l-15-4.8l-3,15.9l-4.3-15.2l-14.1,4.7L519.8,151z
			 M584.9,220l15.2,3.9l3.2-15.6l3.2,15l15.4-3.9l-11.1,11.1l10.9,10l-15-4.8l-3,15.9l-4.3-15.2l-14.1,4.7l11.1-10.6L584.9,220z
			 M634.2,335.1l-11.5-10.6l15.2,3.9l3.2-15.6l3.2,15l15.4-3.9l-11.1,11.1l10.9,10l-15-4.8l-3,15.9l-4.3-15.2l-14.1,4.7L634.2,335.1
			z M649.6,443.2l-11.1,11.1l10.9,10l-15-4.8l-3,15.9l-4.3-15.2l-14.1,4.7l11.1-10.6l-11.5-10.6l15.2,3.9l3.2-15.6l3.2,15
			L649.6,443.2z M592.8,542.4l-11.1,11.1l10.9,10l-15-4.8l-3,15.9l-4.3-15.2l-14.1,4.7l11.1-10.6L555.7,543l15.2,3.9l3.2-15.6
			l3.2,15L592.8,542.4z M505.7,609.5l-11.1,11.1l10.9,10l-15-4.8l-3,15.9l-4.3-15.2l-14.1,4.7l11.1-10.6L468.6,610l15.2,3.9
			l3.2-15.6l3.2,15L505.7,609.5z M392.5,638.6l-11.1,11.1l10.9,10l-15-4.8l-3,15.9l-4.3-15.2l-14.1,4.7l11.1-10.6l-11.5-10.6
			l15.2,3.9l3.2-15.6l3.2,15L392.5,638.6z M277,608.7l-11.1,11.1l10.9,10l-15-4.8l-3,15.9l-4.3-15.2l-14.1,4.7l11.1-10.6l-11.5-10.6
			l15.2,3.9l3.2-15.6l3.2,15L277,608.7z M190.3,541.7l-11.1,11.1l10.9,10l-15-4.8l-3,15.9l-4.3-15.2l-14.1,4.7l11.1-10.6l-11.5-10.6
			l15.2,3.9l3.2-15.6l3.2,15L190.3,541.7z M135,443.6l-11.1,11.1l10.9,10l-15-4.8l-3,15.9l-4.3-15.2l-14.1,4.7l11.1-10.6l-11.5-10.6
			l15.2,3.9l3.2-15.6l3.2,15L135,443.6z M87.7,345.2l11.1-10.6l-11.5-10.6l15.2,3.9l3.2-15.6l3.2,15l15.4-3.9l-11.1,11.1l10.9,10
			l-15-4.8l-3,15.9l-4.3-15.2L87.7,345.2z M160.9,239.8l-15-4.8l-3,15.9l-4.3-15.2l-14.1,4.7l11.1-10.6l-11.5-10.6l15.2,3.9
			l3.2-15.6l3.2,15l15.4-3.9L150,229.8L160.9,239.8z"/>
</svg>
